<?xml version="1.0" encoding="utf-8"?>
<!-- Generator: Adobe Illustrator 12.0.0, SVG Export Plug-In  -->
<!DOCTYPE svg PUBLIC "-//W3C//DTD SVG 1.1//EN" "http://www.w3.org/Graphics/SVG/1.1/DTD/svg11.dtd" [
	<!ENTITY ns_flows "http://ns.adobe.com/Flows/1.0/">
	<!ENTITY ns_svg "http://www.w3.org/2000/svg">
	<!ENTITY ns_xlink "http://www.w3.org/1999/xlink">
]>
<svg  version="1.1" xmlns="&ns_svg;" xmlns:xlink="&ns_xlink;" xmlns:a="http://ns.adobe.com/AdobeSVGViewerExtensions/3.0/"
	 width="732" height="419" viewBox="55 88.2744141 732 419" style="enable-background:new 55 88.2744141 732 419;"
	 xml:space="preserve">
<style type="text/css">
<![CDATA[
	.st0{fill:#ED1C24;}
	.st1{display:none;fill:#121212;}
	.st2{fill:#FFFFFF;}
	.st3{fill:url(#XMLID_49_);}
]]>
</style>
<defs>
</defs>
<rect class="st1" width="841.8896484" height="595.2744141"/>
<radialGradient id="XMLID_51_" cx="420.9443359" cy="297.6376953" r="284.6529236" gradientUnits="userSpaceOnUse">
	<stop  offset="0" style="stop-color:#FFFFFF"/>
	<stop  offset="1" style="stop-color:#000000"/>
</radialGradient>
<ellipse style="fill:url(#XMLID_51_);" cx="420.9443359" cy="297.6367188" rx="344.1435547" ry="208.8544922"/>
<ellipse cx="420.9443359" cy="297.6367188" rx="344.1435547" ry="202.6787109"/>
<path class="st2" d="M96.5439453,340.2773438h-15.328125l15.6289063-126.875h33.0273438
	c5.6816406,0,10.1035156,0.9960938,13.265625,2.9863281s5.7148438,5.6386719,7.6601563,10.9472656
	s2.9179688,11.7421875,2.9179688,19.2988281c0,10.7910156-1.8847656,19.6914063-5.6503906,26.7011719
	c-3.7675781,7.0097656-9.4882813,11.3515625-17.1640625,13.0234375c1.9609375,3,3.8027344,6.953125,5.5273438,11.8574219
	c3.4140625,9.9238281,7.21875,23.9433594,11.4121094,42.0605469h-16.375
	c-1.3261719-7.1484375-3.9277344-18.3066406-7.8027344-33.4726563c-2.109375-8.1875-4.3535156-13.6933594-6.7324219-16.5195313
	c-1.4609375-1.671875-4.0117188-2.5078125-7.6484375-2.5078125h-6.2734375L96.5439453,340.2773438z M105.3486328,268.7773438
	h8.1582031c8.2578125,0,13.7382813-0.8359375,16.4414063-2.5117188c2.703125-1.6738281,4.8183594-4.3007813,6.3476563-7.8808594
	s2.2949219-7.3339844,2.2949219-11.2597656c0-4.6191406-1.1035156-8.0839844-3.3105469-10.3945313
	c-1.359375-1.3847656-4.2988281-2.078125-8.8144531-2.078125h-16.9121094L105.3486328,268.7773438z"/>
<path d="M95.9604492,212.4023438l-15.8754883,128.875h17.3432617c0,0,6.2558594-50.8027344,6.4648438-52.5
	c1.3051758,0,5.3891602,0,5.3891602,0c3.3198242,0,5.6396484,0.7285156,6.8955078,2.1660156
	c2.2587891,2.6835938,4.4555664,8.1083984,6.5170898,16.1103516c3.8525391,15.0800781,6.4731445,26.3193359,7.7875977,33.40625
	l0.1518555,0.8173828h18.4643555l-0.2836914-1.2255859c-4.1796875-18.0585938-8.0288086-32.2431641-11.4404297-42.1601563
	c-1.5410156-4.3818359-3.2026367-8.012207-4.9404297-10.9121094c7.2739258-1.934082,12.8398438-6.3374023,16.512207-13.1699219
	c3.8286133-7.1269531,5.7695313-16.2695313,5.7695313-27.1748047c0-7.6396484-1.0024414-14.2485352-2.9790039-19.6430664
	c-2.0141602-5.4960938-4.7280273-9.3481445-8.0664063-11.4492188c-3.3105469-2.0834961-7.9526367-3.1401367-13.7983398-3.1401367
	H95.9604492z M129.8720703,214.4023438c5.4624023,0,9.746582,0.953125,12.7329102,2.8325195
	c2.9550781,1.8598633,5.3955078,5.3745117,7.2539063,10.4453125c1.8955078,5.1728516,2.8569336,11.550293,2.8569336,18.9545898
	c0,10.5712891-1.8608398,19.3955078-5.53125,26.2280273c-3.605957,6.7084961-9.1557617,10.9208984-16.4960938,12.5195313
	l-1.418457,0.309082l0.7944336,1.215332c1.9057617,2.9155273,3.7294922,6.8325195,5.4208984,11.6416016
	c3.3081055,9.6157227,7.0410156,23.3344727,11.0927734,40.7290039c-2.0336914,0-12.921875,0-14.2880859,0
	c-1.3652344-7.1611328-3.9316406-18.1347656-7.6582031-32.7197266c-2.1674805-8.4135742-4.4360352-13.9462891-6.9360352-16.9165039
	c-1.6645508-1.9047852-4.4912109-2.8637695-8.4135742-2.8637695h-7.1577148c0,0-6.2558594,50.8027344-6.4648438,52.5
	c-1.4477539,0-11.4936523,0-13.3129883,0c0.2695313-2.1894531,15.1708984-123.1591797,15.3823242-124.875
	C99.4042969,214.4023438,129.8720703,214.4023438,129.8720703,214.4023438z"/>
<path d="M108.6694336,233.6523438l-4.4516602,36.125h9.2890625c8.5288086,0,14.0791016-0.8706055,16.9682617-2.6616211
	c2.8676758-1.7758789,5.1357422-4.5810547,6.7402344-8.3378906c1.5761719-3.6899414,2.3754883-7.6103516,2.3754883-11.652832
	c0-4.8637695-1.2070313-8.5932617-3.5874023-11.0854492c-1.5800781-1.609375-4.6967773-2.387207-9.5375977-2.387207H108.6694336z
	 M126.4658203,235.6523438c5.2524414,0,7.3041992,0.9672852,8.1005859,1.7788086
	c2.0039063,2.0976563,3.0244141,5.3623047,3.0244141,9.6938477c0,3.7709961-0.7451172,7.4267578-2.2143555,10.8671875
	c-1.4399414,3.3706055-3.4433594,5.8681641-5.9545898,7.4233398c-2.5283203,1.5673828-7.8828125,2.3618164-15.9150391,2.3618164
	c0,0-5.3491211,0-7.0273438,0c0.2519531-2.043457,3.7602539-30.5151367,3.9584961-32.125
	C112.0263672,235.6523438,126.4658203,235.6523438,126.4658203,235.6523438z"/>
<path class="st2" d="M151.0009766,340.2773438l15.6289063-126.875h54.8710938l-2.625,21.25h-39.6308594l-3.671875,28.75h38.4277344
	l-2.625,21.25h-38.5136719l-4.3867188,34.375h43.0253906l-2.625,21.25H151.0009766z"/>
<path d="M165.7456055,212.4023438l-15.8754883,128.875h59.8901367l2.8720703-23.25c0,0-40.8681641,0-43.0209961,0
	c0.2617188-2.0527344,3.9267578-30.7714844,4.1313477-32.375c1.6816406,0,38.5175781,0,38.5175781,0l2.8720703-23.25
	c0,0-36.2836914,0-38.4233398,0c0.2573242-2.0146484,3.215332-25.1743164,3.4165039-26.75c1.6835938,0,39.6347656,0,39.6347656,0
	l2.8720703-23.25H165.7456055z M220.3696289,214.4023438c-0.237793,1.9262695-2.1894531,17.7260742-2.3779297,19.25
	c-1.6899414,0-39.6269531,0-39.6269531,0l-3.9272461,30.75c0,0,36.3012695,0,38.4321289,0
	c-0.237793,1.9262695-2.1894531,17.7260742-2.3779297,19.25c-1.6875,0-38.5097656,0-38.5097656,0l-4.6420898,36.375
	c0,0,40.8852539,0,43.0297852,0c-0.237793,1.9267578-2.1894531,17.7255859-2.3779297,19.25c-1.6801758,0-53.7197266,0-55.8598633,0
	c0.2695313-2.1894531,15.1708984-123.1591797,15.3823242-124.875
	C169.1904297,214.4023438,218.2353516,214.4023438,220.3696289,214.4023438z"/>
<path class="st2" d="M274.2373047,340.2773438h-14.1796875l-20.109375-85.25l-10.4609375,85.25h-14.1796875l15.6289063-126.875
	h14.1796875l20.1601563,84.875l10.4101563-84.875h14.1796875L274.2373047,340.2773438z"/>
<path d="M274.8017578,212.4023438c0,0-8.6542969,70.5600586-9.8398438,80.2241211
	c-2.2563477-9.4990234-19.0556641-80.2241211-19.0556641-80.2241211h-15.8540039l-15.8754883,128.875h16.1953125
	c0,0,8.6962891-70.8691406,9.887207-80.5751953c2.2514648,9.543457,19.0068359,80.5751953,19.0068359,80.5751953h15.8554688
	l15.8754883-128.875H274.8017578z M288.7353516,214.4023438c-0.2695313,2.1894531-15.1708984,123.1591797-15.3823242,124.875
	c-1.4624023,0-11.1860352,0-12.5039063,0c-0.3569336-1.5126953-19.9277344-84.4794922-19.9277344-84.4794922l-1.9658203,0.1079102
	c0,0-10.1420898,82.6508789-10.3530273,84.371582c-1.4233398,0-10.3789063,0-12.1640625,0
	c0.2695313-2.1894531,15.1708984-123.1591797,15.3823242-124.875c1.4624023,0,11.1889648,0,12.5048828,0
	c0.3588867,1.5102539,19.9775391,84.105957,19.9775391,84.105957l1.9658203-0.109375
	c0,0,10.0913086-82.2763672,10.3022461-83.996582C277.9946289,214.4023438,286.9501953,214.4023438,288.7353516,214.4023438z"/>
<path class="st2" d="M284.84375,340.2773438l15.6289063-126.875h20.0566406c5.5859375,0,9.15625,0.1445313,10.7148438,0.4335938
	c3.0800781,0.5195313,5.8300781,1.5859375,8.25,3.2011719c2.4199219,1.6171875,4.6201172,3.8808594,6.6005859,6.7949219
	s3.6894531,6.4179688,5.1289063,10.5136719c1.4375,4.0976563,2.546875,8.8144531,3.3261719,14.1503906
	c0.7773438,5.3378906,1.1679688,11.1796875,1.1679688,17.5253906c0,13.6757813-1.5332031,25.8066406-4.5976563,36.3925781
	c-3.0664063,10.5878906-6.9179688,18.9980469-11.5576172,25.2285156
	c-3.5566406,4.8476563-8.1464844,8.4238281-13.7695313,10.7304688c-3.1835938,1.2695313-8.078125,1.9042969-14.6816406,1.9042969
	H284.84375z M302.6796875,319.9023438h7.7773438c5.625,0,9.6992188-0.5898438,12.2226563-1.7734375
	s4.8378906-3.390625,6.9394531-6.6210938c3.015625-4.671875,5.5566406-10.9023438,7.6230469-18.6914063
	s3.1015625-16.9609375,3.1015625-27.5195313c0-9-0.8554688-15.7636719-2.5625-20.2929688
	c-1.7070313-4.5273438-3.8125-7.5429688-6.3125-9.0429688c-1.7578125-1.0390625-4.8867188-1.5585938-9.3828125-1.5585938h-8.875
	L302.6796875,319.9023438z"/>
<path d="M299.5883789,212.4023438l-15.8754883,128.875h27.3984375c6.7949219,0,11.71875-0.6464844,15.0522461-1.9755859
	c5.7792969-2.3701172,10.5551758-6.0927734,14.2050781-11.0673828c4.6835938-6.2900391,8.6254883-14.8847656,11.7119141-25.5419922
	c3.0771484-10.6293945,4.637207-22.9672852,4.637207-36.6708984c0-6.3549805-0.3964844-12.300293-1.1782227-17.6694336
	c-0.784668-5.371582-1.9194336-10.1953125-3.3720703-14.3374023c-1.4619141-4.1591797-3.2265625-7.7739258-5.2456055-10.7446289
	c-2.0424805-3.0048828-4.3544922-5.3818359-6.8720703-7.0644531c-2.5258789-1.6860352-5.4326172-2.8149414-8.6391602-3.3554688
	c-1.6181641-0.300293-5.1826172-0.4477539-10.8813477-0.4477539H299.5883789z M320.5292969,214.4023438
	c5.4975586,0,9.0410156,0.1401367,10.5327148,0.4169922c2.9428711,0.496582,5.5878906,1.5214844,7.8769531,3.0493164
	c2.3022461,1.5385742,4.4316406,3.734375,6.3286133,6.5253906c1.921875,2.8276367,3.6083984,6.2875977,5.0126953,10.2832031
	c1.4106445,4.0209961,2.5141602,8.71875,3.2797852,13.9633789c0.7680664,5.2739258,1.1577148,11.121582,1.1577148,17.3808594
	c0,13.515625-1.5336914,25.6660156-4.5581055,36.1142578c-3.0195313,10.4267578-6.8549805,18.8066406-11.3994141,24.9091797
	c-3.4331055,4.6796875-7.921875,8.1777344-13.3466797,10.4033203c-3.0415039,1.2119141-7.8564453,1.8291016-14.3022461,1.8291016
	c0,0-23.065918,0-25.1367188,0c0.2695313-2.1894531,15.1708984-123.1591797,15.3823242-124.875
	C302.9731445,214.4023438,320.5292969,214.4023438,320.5292969,214.4023438z"/>
<path d="M312.3266602,233.4023438l-10.777832,87.5h8.9082031c5.8305664,0,9.9672852-0.6113281,12.6474609-1.8681641
	c2.6845703-1.2587891,5.1586914-3.6083984,7.3530273-6.9814453c3.0600586-4.7412109,5.6674805-11.1259766,7.7514648-18.9799805
	c2.0800781-7.8413086,3.1347656-17.1860352,3.1347656-27.7758789c0-9.074707-0.8837891-16.0209961-2.6269531-20.6455078
	c-1.7807617-4.7231445-4.0463867-7.9355469-6.7333984-9.5478516c-1.9384766-1.1459961-5.1738281-1.7011719-9.8974609-1.7011719
	H312.3266602z M322.0859375,235.4023438c4.2949219,0,7.2807617,0.4775391,8.8740234,1.4194336
	c2.2856445,1.371582,4.2675781,4.2441406,5.8857422,8.5351563c1.6577148,4.3979492,2.4980469,11.1069336,2.4980469,19.9399414
	c0,10.4165039-1.0322266,19.5893555-3.0683594,27.2631836c-2.0297852,7.6508789-4.5517578,13.8432617-7.496582,18.4057617
	c-1.9858398,3.0527344-4.1816406,5.1591797-6.5239258,6.2578125c-2.375,1.1142578-6.3442383,1.6787109-11.7978516,1.6787109
	c0,0-4.9951172,0-6.6464844,0c0.2661133-2.1630859,10.0756836-81.8032227,10.284668-83.5
	C315.5292969,235.4023438,322.0859375,235.4023438,322.0859375,235.4023438z"/>
<path class="st2" d="M354.6289063,340.2773438l15.6289063-126.875h54.8710938l-2.625,21.25h-39.6308594l-3.671875,28.75h38.4277344
	l-2.625,21.25h-38.5136719l-4.3867188,34.375h43.0253906l-2.625,21.25H354.6289063z"/>
<path d="M369.3735352,212.4023438l-15.8754883,128.875h59.8901367l2.8720703-23.25c0,0-40.8681641,0-43.0209961,0
	c0.2617188-2.0527344,3.9267578-30.7714844,4.1313477-32.375c1.6816406,0,38.5175781,0,38.5175781,0l2.8720703-23.25
	c0,0-36.2836914,0-38.4233398,0c0.2573242-2.0146484,3.215332-25.1743164,3.4165039-26.75c1.6835938,0,39.6342773,0,39.6342773,0
	l2.8720703-23.25H369.3735352z M423.9980469,214.4023438c-0.2382813,1.9262695-2.1899414,17.7260742-2.378418,19.25
	c-1.6899414,0-39.6269531,0-39.6269531,0l-3.9272461,30.75c0,0,36.3012695,0,38.4321289,0
	c-0.237793,1.9262695-2.1894531,17.7260742-2.3779297,19.25c-1.6875,0-38.5097656,0-38.5097656,0l-4.6420898,36.375
	c0,0,40.8852539,0,43.0297852,0c-0.237793,1.9267578-2.1894531,17.7255859-2.3779297,19.25c-1.6801758,0-53.7197266,0-55.8598633,0
	c0.2695313-2.1894531,15.1708984-123.1591797,15.3823242-124.875
	C372.8183594,214.4023438,421.8632813,214.4023438,423.9980469,214.4023438z"/>
<path class="st2" d="M434.0136719,340.2773438h-15.328125l15.6289063-126.875h33.0273438
	c5.6816406,0,10.1035156,0.9960938,13.265625,2.9863281s5.7148438,5.6386719,7.6601563,10.9472656
	s2.9179688,11.7421875,2.9179688,19.2988281c0,10.7910156-1.8847656,19.6914063-5.6503906,26.7011719
	c-3.7675781,7.0097656-9.4882813,11.3515625-17.1640625,13.0234375c1.9609375,3,3.8027344,6.953125,5.5273438,11.8574219
	c3.4140625,9.9238281,7.21875,23.9433594,11.4121094,42.0605469h-16.375
	c-1.3261719-7.1484375-3.9277344-18.3066406-7.8027344-33.4726563c-2.109375-8.1875-4.3535156-13.6933594-6.7324219-16.5195313
	c-1.4609375-1.671875-4.0117188-2.5078125-7.6484375-2.5078125h-6.2734375L434.0136719,340.2773438z M442.8183594,268.7773438
	h8.1582031c8.2578125,0,13.7382813-0.8359375,16.4414063-2.5117188c2.703125-1.6738281,4.8183594-4.3007813,6.3476563-7.8808594
	s2.2949219-7.3339844,2.2949219-11.2597656c0-4.6191406-1.1035156-8.0839844-3.3105469-10.3945313
	c-1.359375-1.3847656-4.2988281-2.078125-8.8144531-2.078125h-16.9121094L442.8183594,268.7773438z"/>
<path d="M433.4296875,212.4023438l-15.875,128.875h17.34375c0,0,6.2558594-50.8027344,6.4648438-52.5
	c1.3046875,0,5.3886719,0,5.3886719,0c3.3193359,0,5.6396484,0.7285156,6.8955078,2.1660156
	c2.2587891,2.6835938,4.4550781,8.1083984,6.5166016,16.1103516c3.8535156,15.0800781,6.4736328,26.3193359,7.7880859,33.40625
	l0.1513672,0.8173828h18.4648438l-0.2832031-1.2255859c-4.1796875-18.0585938-8.0292969-32.2431641-11.4414063-42.1601563
	c-1.5400391-4.3818359-3.2021484-8.012207-4.9394531-10.9121094c7.2734375-1.934082,12.8388672-6.3374023,16.5117188-13.1699219
	c3.828125-7.1269531,5.7695313-16.2695313,5.7695313-27.1748047c0-7.6396484-1.0019531-14.2485352-2.9794922-19.6430664
	c-2.0136719-5.4960938-4.7275391-9.3481445-8.0664063-11.4492188c-3.3095703-2.0834961-7.9521484-3.1401367-13.7978516-3.1401367
	H433.4296875z M467.3417969,214.4023438c5.4628906,0,9.7470703,0.953125,12.7333984,2.8325195
	c2.9550781,1.8598633,5.3955078,5.3745117,7.2539063,10.4453125c1.8955078,5.1728516,2.8564453,11.550293,2.8564453,18.9545898
	c0,10.5712891-1.8613281,19.3955078-5.53125,26.2280273c-3.6054688,6.7084961-9.15625,10.9208984-16.4960938,12.5195313
	l-1.4189453,0.309082l0.7949219,1.215332c1.90625,2.9155273,3.7294922,6.8325195,5.4208984,11.6416016
	c3.3076172,9.6157227,7.0410156,23.3344727,11.0927734,40.7290039c-2.0341797,0-12.921875,0-14.2880859,0
	c-1.3652344-7.1611328-3.9316406-18.1347656-7.6582031-32.7197266c-2.1669922-8.4135742-4.4365234-13.9462891-6.9365234-16.9165039
	c-1.6640625-1.9047852-4.4902344-2.8637695-8.4130859-2.8637695H439.59375c0,0-6.2558594,50.8027344-6.4648438,52.5
	c-1.4472656,0-11.4931641,0-13.3125,0c0.2695313-2.1894531,15.1708984-123.1591797,15.3828125-124.875
	C436.8740234,214.4023438,467.3417969,214.4023438,467.3417969,214.4023438z"/>
<path d="M446.1386719,233.6523438l-4.4511719,36.125h9.2890625c8.5283203,0,14.0791016-0.8706055,16.96875-2.6616211
	c2.8671875-1.7758789,5.1347656-4.5810547,6.7402344-8.3378906c1.5761719-3.6899414,2.375-7.6103516,2.375-11.652832
	c0-4.8637695-1.2070313-8.5932617-3.5878906-11.0854492c-1.5800781-1.609375-4.6962891-2.387207-9.5371094-2.387207H446.1386719z
	 M463.9355469,235.6523438c5.2519531,0,7.3046875,0.9672852,8.1005859,1.7788086
	c2.0039063,2.0976563,3.0244141,5.3623047,3.0244141,9.6938477c0,3.7709961-0.7451172,7.4267578-2.2148438,10.8671875
	c-1.4394531,3.3706055-3.4433594,5.8681641-5.9541016,7.4233398c-2.5283203,1.5673828-7.8828125,2.3618164-15.9150391,2.3618164
	c0,0-5.3496094,0-7.0273438,0c0.2519531-2.043457,3.7597656-30.5151367,3.9589844-32.125
	C449.4960938,235.6523438,463.9355469,235.6523438,463.9355469,235.6523438z"/>
<path class="st2" d="M503.6738281,340.2773438h-15.328125l15.6289063-126.875h30.1386719
	c5.359375,0,9.5996094,1.0820313,12.71875,3.2460938c3.1171875,2.1640625,5.5878906,5.7402344,7.4082031,10.7324219
	s2.7304688,10.9492188,2.7304688,17.8710938c0,6.40625-0.7265625,12.6367188-2.1757813,18.6953125
	s-3.2285156,10.90625-5.3359375,14.5410156s-4.375,6.390625-6.8007813,8.265625
	c-2.4277344,1.875-5.6992188,3.3027344-9.8125,4.2832031c-2.3945313,0.578125-6.8769531,0.8652344-13.4511719,0.8652344h-9.7617188
	L503.6738281,340.2773438z M512.2167969,270.9023438h4.6777344c8.015625,0,13.3632813-0.8652344,16.046875-2.5976563
	c2.6835938-1.7304688,4.796875-4.5019531,6.3398438-8.3125c1.5429688-3.8085938,2.3144531-7.9941406,2.3144531-12.5546875
	c0-3.0585938-0.3945313-5.5683594-1.1816406-7.53125s-1.8925781-3.3925781-3.3144531-4.2871094
	c-1.4238281-0.8945313-4.5976563-1.3417969-9.5195313-1.3417969h-10.8496094L512.2167969,270.9023438z"/>
<path d="M503.0898438,212.4023438l-15.875,128.875h17.34375c0,0,5.75-46.6826172,5.9589844-48.375
	c1.4619141,0,8.8769531,0,8.8779297,0c6.71875,0,11.1953125-0.2919922,13.6845703-0.8930664
	c4.2314453-1.0087891,7.6601563-2.5107422,10.1894531-4.4638672c2.5185547-1.9462891,4.8916016-4.824707,7.0546875-8.5556641
	c2.1474609-3.703125,3.9785156-8.6860352,5.4433594-14.8100586c1.4619141-6.1118164,2.203125-12.4799805,2.203125-18.9277344
	c0-7.0068359-0.9394531-13.1347656-2.7910156-18.2138672c-1.8828125-5.1635742-4.4990234-8.9355469-7.7773438-11.2109375
	c-3.2753906-2.2724609-7.7460938-3.4248047-13.2890625-3.4248047H503.0898438z M534.1132813,214.4023438
	c5.1269531,0,9.2148438,1.0322266,12.1484375,3.0678711c2.9316406,2.0351563,5.3007813,5.4848633,7.0390625,10.253418
	c1.7714844,4.8583984,2.6699219,10.7558594,2.6699219,17.5283203c0,6.2915039-0.7226563,12.5029297-2.1484375,18.4628906
	c-1.4199219,5.9350586-3.1787109,10.7368164-5.2285156,14.2719727c-2.0322266,3.5053711-4.2353516,6.1889648-6.546875,7.9760742
	c-2.3027344,1.7783203-5.4765625,3.1586914-9.4326172,4.1015625c-2.3046875,0.5561523-6.7509766,0.8378906-13.21875,0.8378906
	c-0.0009766,0-10.6474609,0-10.6474609,0s-5.75,46.6826172-5.9589844,48.375c-1.4472656,0-11.4931641,0-13.3125,0
	c0.2695313-2.1894531,15.1708984-123.1591797,15.3828125-124.875
	C506.5253906,214.4023438,534.1132813,214.4023438,534.1132813,214.4023438z"/>
<path d="M515.8457031,233.2773438l-4.7597656,38.625h5.8085938c8.2880859,0,13.7148438-0.9018555,16.5888672-2.7573242
	c2.8476563-1.8359375,5.109375-4.7890625,6.7246094-8.7773438c1.5839844-3.9106445,2.3876953-8.2607422,2.3876953-12.9301758
	c0-3.1699219-0.421875-5.8291016-1.2539063-7.9033203c-0.8632813-2.1542969-2.1113281-3.7558594-3.7099609-4.7612305
	c-1.6015625-1.0063477-4.8896484-1.4956055-10.0517578-1.4956055H515.8457031z M527.5800781,235.2773438
	c5.8642578,0,8.1240234,0.6464844,8.9873047,1.1884766c1.2333984,0.7758789,2.2148438,2.0585938,2.9189453,3.8125
	c0.7363281,1.8364258,1.109375,4.2451172,1.109375,7.1591797c0,4.4106445-0.7539063,8.5083008-2.2412109,12.1791992
	c-1.4570313,3.5991211-3.4609375,6.2392578-5.9550781,7.8476563c-2.5058594,1.6176758-7.7226563,2.4379883-15.5048828,2.4379883
	c0,0-2.2470703,0-3.546875,0c0.2539063-2.0571289,4.0673828-33.0053711,4.2675781-34.625
	C519.1064453,235.2773438,527.5800781,235.2773438,527.5800781,235.2773438z"/>
<path class="st2" d="M593.5234375,312.2773438h-29.4628906l-8.9882813,28H539.25l41.9199219-126.875h17.28125l12.0019531,126.875
	h-14.5058594L593.5234375,312.2773438z M591.6796875,291.0273438l-4.4199219-51l-16.375,51H591.6796875z"/>
<path d="M580.4472656,212.4023438l-42.5810547,128.875h17.9355469c0,0,8.5644531-26.6796875,8.9882813-28
	c1.3427734,0,26.1386719,0,27.8164063,0c0.1474609,1.7099609,2.4238281,28,2.4238281,28h16.5214844l-12.1904297-128.875H580.4472656
	z M597.5410156,214.4023438c0.1679688,1.7705078,11.6113281,122.7392578,11.8134766,124.875c-1.75,0-11.0107422,0-12.4902344,0
	c-0.1474609-1.7099609-2.4238281-28-2.4238281-28h-31.109375c0,0-8.5644531,26.6796875-8.9882813,28
	c-1.2050781,0-11.5214844,0-13.7089844,0c0.8457031-2.5595703,40.8154297-123.53125,41.2587891-124.875
	C583.1464844,214.4023438,595.9804688,214.4023438,597.5410156,214.4023438z"/>
<path d="M569.5136719,292.0273438h23.2568359l-4.5146484-52.0864258l-1.9482422-0.2192383L569.5136719,292.0273438z
	 M586.6923828,245.0649414c0.6835938,7.8823242,3.734375,43.0878906,3.8964844,44.9624023c-1.8212891,0-16.0742188,0-18.3330078,0
	C572.9765625,287.7841797,584.2626953,252.6342773,586.6923828,245.0649414z"/>
<path class="st2" d="M655.7333984,272.5273438h33.4726563l-6.7050781,54.5507813
	c-3.9296875,4.3164063-8.7460938,7.96875-14.453125,10.9609375s-11.5234375,4.4882813-17.4492188,4.4882813
	c-9.2109375,0-16.2714844-3.5527344-21.1816406-10.6582031c-6.7070313-9.7050781-10.0585938-23.7734375-10.0585938-42.203125
	c0-12.3632813,1.4355469-24.2070313,4.3085938-35.53125c3.4453125-13.6328125,8.3457031-24.2050781,14.6972656-31.7167969
	c6.3515625-7.5097656,13.8203125-11.265625,22.4023438-11.265625s15.4648438,3.4042969,20.6523438,10.2128906
	s8.625,16.7304688,10.3144531,29.7695313l-14.25,2.7675781c-1.2519531-7.1503906-3.2734375-12.5429688-6.0625-16.1757813
	c-2.7910156-3.6328125-6.3007813-5.4492188-10.5273438-5.4492188c-4.9375,0-9.4707031,2.1992188-13.5957031,6.59375
	c-4.1269531,4.3964844-7.3574219,11.1933594-9.6894531,20.390625c-2.3339844,9.1972656-3.5,19.2324219-3.5,30.1074219
	c0,10.7011719,1.4277344,18.6113281,4.2871094,23.7304688c2.8574219,5.1191406,7.0429688,7.6777344,12.5546875,7.6777344
	c3.3007813,0,6.6855469-0.7929688,10.15625-2.3789063c3.46875-1.5859375,6.4628906-3.4746094,8.9824219-5.6660156
	l2.3300781-18.9550781h-19.3105469L655.7333984,272.5273438z"/>
<path d="M637.6005859,221.7719727c-6.4228516,7.5961914-11.4365234,18.4023438-14.9033203,32.1176758
	c-2.8789063,11.3481445-4.3388672,23.3852539-4.3388672,35.7763672c0,18.5527344,3.4443359,32.9433594,10.2363281,42.7714844
	c5.0849609,7.3583984,12.4882813,11.0898438,22.0039063,11.0898438c6.0615234,0,12.0888672-1.5488281,17.9130859-4.6025391
	c5.7841797-3.0322266,10.7392578-6.7919922,14.7285156-11.1738281l0.2148438-0.2353516l6.8818359-55.9882813h-35.4873047
	l-2.8720703,23.25c0,0,17.3066406,0,19.3105469,0c-0.2382813,1.9389648-2.046875,16.6523438-2.1396484,17.4111328
	c-2.3837891,2.0244141-5.2109375,3.8164063-8.4580078,5.3007813c-3.3222656,1.5185547-6.5996094,2.2880859-9.7402344,2.2880859
	c-5.1689453,0-8.9902344-2.34375-11.6816406-7.1650391c-2.7607422-4.9423828-4.1601563-12.7626953-4.1601563-23.2431641
	c0-10.7431641,1.1669922-20.7900391,3.4697266-29.8613281c2.2783203-8.9873047,5.4580078-15.7001953,9.4492188-19.9521484
	c3.9101563-4.1660156,8.2392578-6.2783203,12.8662109-6.2783203c3.9355469,0,7.1191406,1.6547852,9.734375,5.0585938
	c2.6777344,3.4873047,4.6523438,8.7827148,5.8701172,15.7387695l0.1757813,1.003418l16.171875-3.140625l-0.1210938-0.9311523
	c-1.7041016-13.1533203-5.2402344-23.3300781-10.5097656-30.2470703
	c-5.3632813-7.0380859-12.5791016-10.6069336-21.4482422-10.6069336
	C651.9160156,210.1523438,644.1220703,214.0620117,637.6005859,221.7719727z M630.2392578,331.3007813
	c-6.5566406-9.4873047-9.8808594-23.4960938-9.8808594-41.6347656c0-12.2250977,1.4394531-24.0966797,4.2783203-35.2851563
	c3.390625-13.4194336,8.2666016-23.9555664,14.4912109-31.3173828c6.1230469-7.2402344,13.4042969-10.9111328,21.6386719-10.9111328
	c8.2119141,0,14.8925781,3.3037109,19.8564453,9.8188477c4.9296875,6.4702148,8.2763672,16.0244141,9.9785156,28.3647461
	c-1.5234375,0.2958984-10.7958984,2.0966797-12.3486328,2.3984375c-1.2880859-6.769043-3.3017578-12.0522461-6.0390625-15.6166992
	c-2.9775391-3.8754883-6.7861328-5.840332-11.3203125-5.840332c-5.2021484,0-10.0214844,2.324707-14.3251953,6.9091797
	c-4.2255859,4.5019531-7.5664063,11.5097656-9.9296875,20.8295898c-2.3427734,9.2319336-3.5302734,19.4438477-3.5302734,30.3530273
	c0,10.8261719,1.4853516,18.9746094,4.4140625,24.2177734c3.0332031,5.4345703,7.5507813,8.1904297,13.4277344,8.1904297
	c3.4287109,0,6.9863281-0.8310547,10.5722656-2.4697266c3.5390625-1.6181641,6.6425781-3.5761719,9.2226563-5.8203125
	l0.2890625-0.2519531l2.515625-20.4580078c0,0-17.3056641,0-19.3105469,0c0.2382813-1.9262695,2.1904297-17.7260742,2.3779297-19.25
	c1.6181641,0,29.4052734,0,31.4580078,0c-0.2626953,2.1386719-6.4443359,52.4306641-6.5253906,53.0888672
	c-3.796875,4.1152344-8.4863281,7.6640625-13.9658203,10.5371094c-5.5361328,2.9023438-11.2509766,4.3740234-16.9853516,4.3740234
	C641.6542969,341.5273438,634.9951172,338.1826172,630.2392578,331.3007813z"/>
<path class="st2" d="M690.1728516,340.2773438l15.6289063-126.875h54.8710938l-2.625,21.25h-39.6308594l-3.671875,28.75h38.4277344
	l-2.625,21.25h-38.5136719l-4.3867188,34.375h43.0253906l-2.625,21.25H690.1728516z"/>
<path d="M704.9169922,212.4023438l-15.875,128.875h59.8896484l2.8720703-23.25c0,0-40.8671875,0-43.0205078,0
	c0.2617188-2.0527344,3.9267578-30.7714844,4.1318359-32.375c1.6806641,0,38.5166016,0,38.5166016,0l2.8720703-23.25
	c0,0-36.2832031,0-38.4228516,0c0.2578125-2.0146484,3.2148438-25.1743164,3.4169922-26.75c1.6826172,0,39.6337891,0,39.6337891,0
	l2.8720703-23.25H704.9169922z M759.5419922,214.4023438c-0.2382813,1.9262695-2.1904297,17.7260742-2.3779297,19.25
	c-1.6904297,0-39.6279297,0-39.6279297,0l-3.9267578,30.75c0,0,36.3017578,0,38.4326172,0
	c-0.2382813,1.9262695-2.1904297,17.7260742-2.3779297,19.25c-1.6884766,0-38.5107422,0-38.5107422,0l-4.6416016,36.375
	c0,0,40.8847656,0,43.0302734,0c-0.2382813,1.9267578-2.1904297,17.7255859-2.3779297,19.25c-1.6806641,0-53.7207031,0-55.8603516,0
	c0.2695313-2.1894531,15.1708984-123.1591797,15.3828125-124.875
	C708.3623047,214.4023438,757.4072266,214.4023438,759.5419922,214.4023438z"/>
<polyline class="st0" points="55.4111328,352.0664063 786.4794922,352.0664063 764.6142578,397.828125 "/>
</svg>
